<svg width="62" height="60" viewBox="0 0 62 60" fill="none" xmlns="http://www.w3.org/2000/svg">
<rect x="0.5" y="5.5" width="61" height="54" fill="#651212" stroke="#B4B8B4"/>
<path d="M48.1961 32.1075C48.1961 33.2628 47.9313 34.3579 47.4018 35.3928C46.8964 36.4037 46.1864 37.3183 45.2718 38.1366C44.3572 38.9309 43.2862 39.6048 42.0587 40.1584C40.8312 40.7119 39.4954 41.085 38.0513 41.2775C38.4123 42.3606 38.8455 43.4798 39.351 44.6351C39.8805 45.7663 40.4461 46.8614 41.0478 47.9204C41.6495 48.9794 42.2753 49.9542 42.9251 50.8447C43.575 51.7352 44.2128 52.4693 44.8386 53.047C44.7182 53.2877 44.5377 53.5283 44.297 53.769C44.0804 54.0097 43.8157 54.2263 43.5028 54.4189C43.2139 54.6355 42.9011 54.804 42.5641 54.9243C42.2512 55.0687 41.9504 55.1409 41.6615 55.1409C41.132 55.1409 40.6266 54.8882 40.1452 54.3828C39.6639 53.8773 39.1705 53.0831 38.665 52C38.1837 50.8929 37.6662 49.4728 37.1126 47.7399C36.5831 45.9829 35.9934 43.8769 35.3436 41.4219C35.0788 41.4219 34.8141 41.4219 34.5493 41.4219C34.2846 41.4219 34.08 41.3979 33.9356 41.3497C33.7671 41.2535 33.5866 41.085 33.3941 40.8443C32.7442 42.2403 32.1666 43.552 31.6611 44.7795C31.1557 46.007 30.6984 47.1984 30.2892 48.3536C29.9041 49.4849 29.5551 50.592 29.2423 51.6751C28.9534 52.7341 28.7007 53.8172 28.4841 54.9243C27.6658 54.7318 26.9558 54.3828 26.3541 53.8773C25.7523 53.3719 25.1867 52.6619 24.6572 51.7473C24.7535 51.5307 24.8498 51.3261 24.9461 51.1335C25.0664 50.9169 25.2108 50.6281 25.3793 50.2671C25.5478 49.882 25.7523 49.4006 25.993 48.823C26.2578 48.2453 26.5947 47.4751 27.0039 46.5124C27.4371 45.5497 27.9426 44.3703 28.5202 42.9744C29.1219 41.5784 29.844 39.8816 30.6864 37.8839C31.0715 36.9934 31.3964 36.2111 31.6611 35.5372C31.9499 34.8633 32.2027 34.2255 32.4193 33.6238C32.6359 32.998 32.8284 32.3843 32.9969 31.7826C33.1895 31.1568 33.382 30.4468 33.5746 29.6525C32.4674 30.0376 31.4325 30.4708 30.4697 30.9522C29.5311 31.4095 28.7489 31.9029 28.1231 32.4324C27.9065 32.288 27.6778 32.0714 27.4371 31.7826C27.2205 31.4937 27.0159 31.1809 26.8234 30.8439C26.6308 30.4829 26.4624 30.1218 26.3179 29.7608C26.1735 29.3998 26.0893 29.0749 26.0652 28.7861C26.7873 28.3047 27.6658 27.8594 28.7007 27.4503C29.7597 27.0411 30.8789 26.6921 32.0583 26.4033C33.2376 26.0904 34.441 25.8497 35.6685 25.6812C36.896 25.5128 38.0392 25.4285 39.0983 25.4285C41.9865 25.4285 44.2248 26.0302 45.8133 27.2336C47.4018 28.413 48.1961 30.0376 48.1961 32.1075ZM39.3871 29.0749C39.2186 29.2915 38.9538 29.7247 38.5928 30.3746C38.2318 31.0244 37.8106 31.8066 37.3292 32.7212C36.8719 33.6118 36.3785 34.5865 35.849 35.6455C35.3436 36.7045 34.8502 37.7515 34.3688 38.7865C36.1739 38.7865 37.8347 38.618 39.351 38.281C40.8673 37.9441 42.179 37.4747 43.2862 36.873C44.3933 36.2472 45.2477 35.5252 45.8494 34.7069C46.4752 33.8645 46.7881 32.9378 46.7881 31.927C46.7881 30.7236 46.3549 29.809 45.4884 29.1832C44.6219 28.5333 43.2862 28.2084 41.481 28.2084C41.0719 28.2084 40.6627 28.2325 40.2535 28.2806C39.8444 28.3047 39.4111 28.3408 38.9538 28.3889L39.3871 29.0749Z" fill="#B4B8B4"/>
<path d="M37.1961 19.1075C37.1961 20.2628 36.9313 21.3579 36.4018 22.3928C35.8964 23.4037 35.1864 24.3183 34.2718 25.1366C33.3572 25.9309 32.2862 26.6048 31.0587 27.1584C29.8312 27.7119 28.4954 28.085 27.0513 28.2775C27.4123 29.3606 27.8455 30.4798 28.351 31.6351C28.8805 32.7663 29.4461 33.8614 30.0478 34.9204C30.6495 35.9794 31.2753 36.9542 31.9251 37.8447C32.575 38.7352 33.2128 39.4693 33.8386 40.047C33.7182 40.2877 33.5377 40.5283 33.297 40.769C33.0804 41.0097 32.8157 41.2263 32.5028 41.4189C32.2139 41.6355 31.9011 41.804 31.5641 41.9243C31.2512 42.0687 30.9504 42.1409 30.6615 42.1409C30.132 42.1409 29.6266 41.8882 29.1452 41.3828C28.6639 40.8773 28.1705 40.0831 27.665 39C27.1837 37.8929 26.6662 36.4728 26.1126 34.7399C25.5831 32.9829 24.9934 30.8769 24.3436 28.4219C24.0788 28.4219 23.8141 28.4219 23.5493 28.4219C23.2846 28.4219 23.08 28.3979 22.9356 28.3497C22.7671 28.2535 22.5866 28.085 22.3941 27.8443C21.7442 29.2403 21.1666 30.552 20.6611 31.7795C20.1557 33.007 19.6984 34.1984 19.2892 35.3536C18.9041 36.4849 18.5551 37.592 18.2423 38.6751C17.9534 39.7341 17.7007 40.8172 17.4841 41.9243C16.6658 41.7318 15.9558 41.3828 15.3541 40.8773C14.7523 40.3719 14.1867 39.6619 13.6572 38.7473C13.7535 38.5307 13.8498 38.3261 13.9461 38.1335C14.0664 37.9169 14.2108 37.6281 14.3793 37.2671C14.5478 36.882 14.7523 36.4006 14.993 35.823C15.2578 35.2453 15.5947 34.4751 16.0039 33.5124C16.4371 32.5497 16.9426 31.3703 17.5202 29.9744C18.1219 28.5784 18.844 26.8816 19.6864 24.8839C20.0715 23.9934 20.3964 23.2111 20.6611 22.5372C20.9499 21.8633 21.2027 21.2255 21.4193 20.6238C21.6359 19.998 21.8284 19.3843 21.9969 18.7826C22.1895 18.1568 22.382 17.4468 22.5746 16.6525C21.4674 17.0376 20.4325 17.4708 19.4697 17.9522C18.5311 18.4095 17.7489 18.9029 17.1231 19.4324C16.9065 19.288 16.6778 19.0714 16.4371 18.7826C16.2205 18.4937 16.0159 18.1809 15.8234 17.8439C15.6308 17.4829 15.4624 17.1218 15.3179 16.7608C15.1735 16.3998 15.0893 16.0749 15.0652 15.7861C15.7873 15.3047 16.6658 14.8594 17.7007 14.4503C18.7597 14.0411 19.8789 13.6921 21.0583 13.4033C22.2376 13.0904 23.441 12.8497 24.6685 12.6812C25.896 12.5128 27.0392 12.4285 28.0983 12.4285C30.9865 12.4285 33.2248 13.0302 34.8133 14.2336C36.4018 15.413 37.1961 17.0376 37.1961 19.1075ZM28.3871 16.0749C28.2186 16.2915 27.9538 16.7247 27.5928 17.3746C27.2318 18.0244 26.8106 18.8066 26.3292 19.7212C25.8719 20.6118 25.3785 21.5865 24.849 22.6455C24.3436 23.7045 23.8502 24.7515 23.3688 25.7865C25.1739 25.7865 26.8347 25.618 28.351 25.281C29.8673 24.9441 31.179 24.4747 32.2862 23.873C33.3933 23.2472 34.2477 22.5252 34.8494 21.7069C35.4752 20.8645 35.7881 19.9378 35.7881 18.927C35.7881 17.7236 35.3549 16.809 34.4884 16.1832C33.6219 15.5333 32.2862 15.2084 30.481 15.2084C30.0719 15.2084 29.6627 15.2325 29.2535 15.2806C28.8444 15.3047 28.4111 15.3408 27.9538 15.3889L28.3871 16.0749Z" fill="white"/>
</svg>
